<mxfile host="Electron" modified="2023-07-07T15:37:52.240Z" agent="Mozilla/5.0 (Windows NT 10.0; Win64; x64) AppleWebKit/537.36 (KHTML, like Gecko) draw.io/21.2.8 Chrome/112.0.5615.165 Electron/24.2.0 Safari/537.36" etag="c-0gcHEJnsrAqqBUhOsP" version="21.2.8" type="device" pages="8">
  <diagram id="36sCerdlLbyP5QrQqL0T" name="test-pyramid">
    <mxGraphModel dx="1416" dy="818" grid="1" gridSize="10" guides="1" tooltips="1" connect="1" arrows="1" fold="1" page="1" pageScale="1" pageWidth="1100" pageHeight="850" math="0" shadow="0">
      <root>
        <mxCell id="0" />
        <mxCell id="1" parent="0" />
        <mxCell id="nTMtdDJBs6kvZ2ww08L1-1" value="" style="triangle;whiteSpace=wrap;html=1;rounded=0;strokeColor=#00A3E0;strokeWidth=4;fontSize=18;fontColor=#000000;fillColor=#00A3E0;rotation=-90;" parent="1" vertex="1">
          <mxGeometry x="240.86" y="-0.85" width="479.06" height="640.77" as="geometry" />
        </mxCell>
        <mxCell id="7JRj4x7jK_AmKWuyVGXM-3" value="" style="endArrow=none;html=1;rounded=0;strokeColor=#FFFFFF;strokeWidth=3;fontSize=18;fontColor=#000000;" parent="1" edge="1">
          <mxGeometry width="50" height="50" relative="1" as="geometry">
            <mxPoint x="360" y="240" as="sourcePoint" />
            <mxPoint x="610" y="240" as="targetPoint" />
          </mxGeometry>
        </mxCell>
        <mxCell id="7JRj4x7jK_AmKWuyVGXM-4" value="" style="endArrow=none;html=1;rounded=0;strokeColor=#FFFFFF;strokeWidth=3;fontSize=18;fontColor=#000000;" parent="1" edge="1">
          <mxGeometry width="50" height="50" relative="1" as="geometry">
            <mxPoint x="260.3899999999999" y="400.19" as="sourcePoint" />
            <mxPoint x="700.39" y="400" as="targetPoint" />
          </mxGeometry>
        </mxCell>
        <mxCell id="X6r0knYcW0PZUJOxry8O-1" value="UI" style="text;html=1;strokeColor=none;fillColor=none;align=center;verticalAlign=middle;whiteSpace=wrap;rounded=0;strokeWidth=4;fontSize=40;fontColor=#FFFFFF;" parent="1" vertex="1">
          <mxGeometry x="450.39" y="160" width="60" height="30" as="geometry" />
        </mxCell>
        <mxCell id="X6r0knYcW0PZUJOxry8O-2" value="Service" style="text;html=1;strokeColor=none;fillColor=none;align=center;verticalAlign=middle;whiteSpace=wrap;rounded=0;strokeWidth=4;fontSize=40;fontColor=#FFFFFF;" parent="1" vertex="1">
          <mxGeometry x="450.39" y="304.53999999999996" width="60" height="30" as="geometry" />
        </mxCell>
        <mxCell id="X6r0knYcW0PZUJOxry8O-3" value="Unit" style="text;html=1;strokeColor=none;fillColor=none;align=center;verticalAlign=middle;whiteSpace=wrap;rounded=0;strokeWidth=4;fontSize=40;fontColor=#FFFFFF;" parent="1" vertex="1">
          <mxGeometry x="450.39" y="470" width="60" height="30" as="geometry" />
        </mxCell>
        <mxCell id="X6r0knYcW0PZUJOxry8O-4" value="" style="endArrow=classic;startArrow=classic;html=1;rounded=0;strokeColor=#00A3E0;strokeWidth=3;fontSize=18;fontColor=#FFFFFF;" parent="1" edge="1">
          <mxGeometry width="50" height="50" relative="1" as="geometry">
            <mxPoint x="140" y="560" as="sourcePoint" />
            <mxPoint x="140" y="80" as="targetPoint" />
          </mxGeometry>
        </mxCell>
        <mxCell id="X6r0knYcW0PZUJOxry8O-5" value="" style="endArrow=classic;startArrow=classic;html=1;rounded=0;strokeColor=#00A3E0;strokeWidth=3;fontSize=18;fontColor=#FFFFFF;" parent="1" edge="1">
          <mxGeometry width="50" height="50" relative="1" as="geometry">
            <mxPoint x="820" y="559.54" as="sourcePoint" />
            <mxPoint x="820" y="79.53999999999999" as="targetPoint" />
          </mxGeometry>
        </mxCell>
        <mxCell id="X6r0knYcW0PZUJOxry8O-6" value="Slow" style="text;html=1;strokeColor=none;fillColor=none;align=center;verticalAlign=middle;whiteSpace=wrap;rounded=0;strokeWidth=4;fontSize=32;fontColor=#00A3E0;" parent="1" vertex="1">
          <mxGeometry x="70" y="80" width="50" height="30" as="geometry" />
        </mxCell>
        <mxCell id="X6r0knYcW0PZUJOxry8O-7" value="Quick" style="text;html=1;strokeColor=none;fillColor=none;align=center;verticalAlign=middle;whiteSpace=wrap;rounded=0;strokeWidth=4;fontSize=32;fontColor=#00A3E0;" parent="1" vertex="1">
          <mxGeometry x="60" y="530" width="60" height="30" as="geometry" />
        </mxCell>
        <mxCell id="X6r0knYcW0PZUJOxry8O-8" value="More Integration" style="text;html=1;strokeColor=none;fillColor=none;align=center;verticalAlign=middle;whiteSpace=wrap;rounded=0;strokeWidth=4;fontSize=32;fontColor=#00A3E0;" parent="1" vertex="1">
          <mxGeometry x="840" y="80" width="140" height="30" as="geometry" />
        </mxCell>
        <mxCell id="X6r0knYcW0PZUJOxry8O-9" value="More Isolation" style="text;html=1;strokeColor=none;fillColor=none;align=center;verticalAlign=middle;whiteSpace=wrap;rounded=0;strokeWidth=4;fontSize=32;fontColor=#00A3E0;" parent="1" vertex="1">
          <mxGeometry x="840" y="530" width="120" height="30" as="geometry" />
        </mxCell>
      </root>
    </mxGraphModel>
  </diagram>
  <diagram id="692fAsG-bisTWtfbOM5Z" name="ui-tests-scope">
    <mxGraphModel dx="1416" dy="818" grid="1" gridSize="10" guides="1" tooltips="1" connect="1" arrows="1" fold="1" page="1" pageScale="1" pageWidth="850" pageHeight="1100" math="0" shadow="0">
      <root>
        <mxCell id="0" />
        <mxCell id="1" parent="0" />
        <mxCell id="WW_x3ZccFMUumgvUnaIz-1" value="&lt;font style=&quot;font-size: 30px;&quot;&gt;UI&lt;/font&gt;" style="rounded=0;whiteSpace=wrap;html=1;fillColor=#00A3E0;strokeColor=none;fontColor=#FFFFFF;" parent="1" vertex="1">
          <mxGeometry x="200" y="120" width="200" height="120" as="geometry" />
        </mxCell>
        <mxCell id="WW_x3ZccFMUumgvUnaIz-2" value="&lt;span style=&quot;font-size: 30px;&quot;&gt;Order API&lt;/span&gt;" style="rounded=0;whiteSpace=wrap;html=1;fillColor=#00A3E0;strokeColor=none;fontColor=#FFFFFF;" parent="1" vertex="1">
          <mxGeometry x="320" y="290" width="200" height="120" as="geometry" />
        </mxCell>
        <mxCell id="WW_x3ZccFMUumgvUnaIz-4" value="&lt;i style=&quot;font-size: 24px;&quot;&gt;&lt;font style=&quot;font-size: 24px;&quot;&gt;SQL Server&lt;/font&gt;&lt;/i&gt;" style="shape=cylinder3;whiteSpace=wrap;html=1;boundedLbl=1;backgroundOutline=1;size=15;fontSize=24;fontColor=#FFFFFF;fillColor=#00A3E0;strokeColor=#00539F;" parent="1" vertex="1">
          <mxGeometry x="370" y="450" width="100" height="110" as="geometry" />
        </mxCell>
        <mxCell id="WW_x3ZccFMUumgvUnaIz-5" value="" style="endArrow=classic;html=1;rounded=0;fontSize=20;fontColor=#FFFFFF;entryX=0.5;entryY=0;entryDx=0;entryDy=0;strokeColor=#00539F;strokeWidth=2;" parent="1" source="WW_x3ZccFMUumgvUnaIz-1" target="WW_x3ZccFMUumgvUnaIz-2" edge="1">
          <mxGeometry width="50" height="50" relative="1" as="geometry">
            <mxPoint x="150" y="330" as="sourcePoint" />
            <mxPoint x="200" y="280" as="targetPoint" />
          </mxGeometry>
        </mxCell>
        <mxCell id="WW_x3ZccFMUumgvUnaIz-6" value="" style="endArrow=classic;html=1;rounded=0;fontSize=20;fontColor=#FFFFFF;entryX=0.5;entryY=0;entryDx=0;entryDy=0;strokeColor=#00539F;strokeWidth=2;exitX=0.5;exitY=1;exitDx=0;exitDy=0;entryPerimeter=0;" parent="1" source="WW_x3ZccFMUumgvUnaIz-2" target="WW_x3ZccFMUumgvUnaIz-4" edge="1">
          <mxGeometry width="50" height="50" relative="1" as="geometry">
            <mxPoint x="330" y="260" as="sourcePoint" />
            <mxPoint x="330" y="340" as="targetPoint" />
          </mxGeometry>
        </mxCell>
        <mxCell id="WW_x3ZccFMUumgvUnaIz-8" value="&lt;span style=&quot;font-size: 30px;&quot;&gt;ZIP Code API&lt;br&gt;&lt;/span&gt;&lt;i&gt;&lt;font style=&quot;font-size: 18px;&quot;&gt;&amp;lt;&amp;lt;external&amp;gt;&amp;gt;&lt;/font&gt;&lt;/i&gt;" style="rounded=0;whiteSpace=wrap;html=1;fillColor=#ADD8E6;strokeColor=none;fontColor=#00539F;" parent="1" vertex="1">
          <mxGeometry x="560" y="210" width="200" height="120" as="geometry" />
        </mxCell>
        <mxCell id="WW_x3ZccFMUumgvUnaIz-9" value="" style="endArrow=classic;html=1;rounded=0;fontSize=20;fontColor=#FFFFFF;entryX=0;entryY=0.25;entryDx=0;entryDy=0;strokeColor=#00539F;strokeWidth=2;exitX=1;exitY=0.5;exitDx=0;exitDy=0;" parent="1" source="WW_x3ZccFMUumgvUnaIz-1" target="WW_x3ZccFMUumgvUnaIz-8" edge="1">
          <mxGeometry width="50" height="50" relative="1" as="geometry">
            <mxPoint x="350" y="260" as="sourcePoint" />
            <mxPoint x="350" y="300" as="targetPoint" />
          </mxGeometry>
        </mxCell>
        <mxCell id="WW_x3ZccFMUumgvUnaIz-10" value="" style="endArrow=classic;html=1;rounded=0;fontSize=20;fontColor=#FFFFFF;entryX=0;entryY=0.75;entryDx=0;entryDy=0;strokeColor=#00539F;strokeWidth=2;exitX=1;exitY=0.5;exitDx=0;exitDy=0;" parent="1" source="WW_x3ZccFMUumgvUnaIz-2" target="WW_x3ZccFMUumgvUnaIz-8" edge="1">
          <mxGeometry width="50" height="50" relative="1" as="geometry">
            <mxPoint x="450" y="200" as="sourcePoint" />
            <mxPoint x="490" y="250" as="targetPoint" />
          </mxGeometry>
        </mxCell>
        <mxCell id="Hskk1C1pNJzvfnvEUyjj-1" value="&lt;span style=&quot;font-size: 30px;&quot;&gt;Product API&lt;/span&gt;" style="rounded=0;whiteSpace=wrap;html=1;fillColor=#00A3E0;strokeColor=none;fontColor=#FFFFFF;" parent="1" vertex="1">
          <mxGeometry x="80" y="290" width="200" height="120" as="geometry" />
        </mxCell>
        <mxCell id="Hskk1C1pNJzvfnvEUyjj-2" value="&lt;i style=&quot;font-size: 24px;&quot;&gt;&lt;font style=&quot;font-size: 24px;&quot;&gt;SQL Server&lt;/font&gt;&lt;/i&gt;" style="shape=cylinder3;whiteSpace=wrap;html=1;boundedLbl=1;backgroundOutline=1;size=15;fontSize=24;fontColor=#FFFFFF;fillColor=#00A3E0;strokeColor=#00539F;" parent="1" vertex="1">
          <mxGeometry x="130" y="450" width="100" height="110" as="geometry" />
        </mxCell>
        <mxCell id="Hskk1C1pNJzvfnvEUyjj-4" value="" style="endArrow=classic;html=1;rounded=0;fontSize=20;fontColor=#FFFFFF;strokeColor=#00539F;strokeWidth=2;" parent="1" source="Hskk1C1pNJzvfnvEUyjj-1" target="Hskk1C1pNJzvfnvEUyjj-2" edge="1">
          <mxGeometry width="50" height="50" relative="1" as="geometry">
            <mxPoint x="420" y="420" as="sourcePoint" />
            <mxPoint x="420" y="460" as="targetPoint" />
          </mxGeometry>
        </mxCell>
        <mxCell id="Hskk1C1pNJzvfnvEUyjj-5" value="" style="endArrow=classic;html=1;rounded=0;fontSize=20;fontColor=#FFFFFF;strokeColor=#00539F;strokeWidth=2;" parent="1" source="WW_x3ZccFMUumgvUnaIz-1" target="Hskk1C1pNJzvfnvEUyjj-1" edge="1">
          <mxGeometry width="50" height="50" relative="1" as="geometry">
            <mxPoint x="370" y="250" as="sourcePoint" />
            <mxPoint x="420" y="300" as="targetPoint" />
          </mxGeometry>
        </mxCell>
        <mxCell id="Hskk1C1pNJzvfnvEUyjj-7" value="" style="endArrow=classic;html=1;rounded=0;fontSize=20;fontColor=#FFFFFF;strokeColor=#00539F;strokeWidth=2;" parent="1" source="WW_x3ZccFMUumgvUnaIz-2" target="Hskk1C1pNJzvfnvEUyjj-1" edge="1">
          <mxGeometry width="50" height="50" relative="1" as="geometry">
            <mxPoint x="375.4545454545455" y="250" as="sourcePoint" />
            <mxPoint x="430" y="300" as="targetPoint" />
          </mxGeometry>
        </mxCell>
      </root>
    </mxGraphModel>
  </diagram>
  <diagram name="service-tests-scope" id="9piHuzJo_sd1mwmXzwb2">
    <mxGraphModel dx="1416" dy="818" grid="1" gridSize="10" guides="1" tooltips="1" connect="1" arrows="1" fold="1" page="1" pageScale="1" pageWidth="850" pageHeight="1100" math="0" shadow="0">
      <root>
        <mxCell id="sWqvC_U9Wl_9yibyVv1V-0" />
        <mxCell id="sWqvC_U9Wl_9yibyVv1V-1" parent="sWqvC_U9Wl_9yibyVv1V-0" />
        <mxCell id="sWqvC_U9Wl_9yibyVv1V-3" value="&lt;span style=&quot;font-size: 30px;&quot;&gt;Order API&lt;/span&gt;" style="rounded=0;whiteSpace=wrap;html=1;fillColor=#00A3E0;strokeColor=none;fontColor=#FFFFFF;" parent="sWqvC_U9Wl_9yibyVv1V-1" vertex="1">
          <mxGeometry x="330" y="280" width="200" height="120" as="geometry" />
        </mxCell>
        <mxCell id="sWqvC_U9Wl_9yibyVv1V-4" value="&lt;i style=&quot;font-size: 24px;&quot;&gt;&lt;font style=&quot;font-size: 24px;&quot;&gt;SQL Server&lt;/font&gt;&lt;/i&gt;" style="shape=cylinder3;whiteSpace=wrap;html=1;boundedLbl=1;backgroundOutline=1;size=15;fontSize=24;fontColor=#FFFFFF;fillColor=#00A3E0;strokeColor=#00539F;" parent="sWqvC_U9Wl_9yibyVv1V-1" vertex="1">
          <mxGeometry x="380" y="440" width="100" height="110" as="geometry" />
        </mxCell>
        <mxCell id="sWqvC_U9Wl_9yibyVv1V-6" value="" style="endArrow=classic;html=1;rounded=0;fontSize=20;fontColor=#FFFFFF;entryX=0.5;entryY=0;entryDx=0;entryDy=0;strokeColor=#00539F;strokeWidth=2;exitX=0.5;exitY=1;exitDx=0;exitDy=0;entryPerimeter=0;" parent="sWqvC_U9Wl_9yibyVv1V-1" source="sWqvC_U9Wl_9yibyVv1V-3" target="sWqvC_U9Wl_9yibyVv1V-4" edge="1">
          <mxGeometry width="50" height="50" relative="1" as="geometry">
            <mxPoint x="340" y="250" as="sourcePoint" />
            <mxPoint x="340" y="330" as="targetPoint" />
          </mxGeometry>
        </mxCell>
        <mxCell id="sWqvC_U9Wl_9yibyVv1V-7" value="&lt;span style=&quot;font-size: 30px;&quot;&gt;ZIP Code API&lt;br&gt;&lt;/span&gt;&lt;i&gt;&lt;font style=&quot;font-size: 18px;&quot;&gt;&amp;lt;&amp;lt;external&amp;gt;&amp;gt;&lt;/font&gt;&lt;/i&gt;" style="rounded=0;whiteSpace=wrap;html=1;fillColor=#ADD8E6;strokeColor=none;fontColor=#00539F;" parent="sWqvC_U9Wl_9yibyVv1V-1" vertex="1">
          <mxGeometry x="560" y="280" width="200" height="120" as="geometry" />
        </mxCell>
        <mxCell id="sWqvC_U9Wl_9yibyVv1V-9" value="" style="endArrow=classic;html=1;rounded=0;fontSize=20;fontColor=#FFFFFF;strokeColor=#00539F;strokeWidth=2;exitX=1;exitY=0.5;exitDx=0;exitDy=0;" parent="sWqvC_U9Wl_9yibyVv1V-1" source="sWqvC_U9Wl_9yibyVv1V-3" target="sWqvC_U9Wl_9yibyVv1V-7" edge="1">
          <mxGeometry width="50" height="50" relative="1" as="geometry">
            <mxPoint x="460" y="190" as="sourcePoint" />
            <mxPoint x="500" y="240" as="targetPoint" />
          </mxGeometry>
        </mxCell>
        <mxCell id="sWqvC_U9Wl_9yibyVv1V-10" value="&lt;span style=&quot;font-size: 30px;&quot;&gt;Product API&lt;/span&gt;" style="rounded=0;whiteSpace=wrap;html=1;fillColor=#00A3E0;strokeColor=none;fontColor=#330000;" parent="sWqvC_U9Wl_9yibyVv1V-1" vertex="1">
          <mxGeometry x="90" y="280" width="200" height="120" as="geometry" />
        </mxCell>
        <mxCell id="sWqvC_U9Wl_9yibyVv1V-11" value="&lt;i style=&quot;font-size: 24px;&quot;&gt;&lt;font style=&quot;font-size: 24px;&quot;&gt;SQL Server&lt;/font&gt;&lt;/i&gt;" style="shape=cylinder3;whiteSpace=wrap;html=1;boundedLbl=1;backgroundOutline=1;size=15;fontSize=24;fontColor=#330000;fillColor=#00A3E0;strokeColor=#00539F;" parent="sWqvC_U9Wl_9yibyVv1V-1" vertex="1">
          <mxGeometry x="140" y="440" width="100" height="110" as="geometry" />
        </mxCell>
        <mxCell id="sWqvC_U9Wl_9yibyVv1V-12" value="" style="endArrow=classic;html=1;rounded=0;fontSize=20;fontColor=#FFFFFF;strokeColor=#00539F;strokeWidth=2;" parent="sWqvC_U9Wl_9yibyVv1V-1" source="sWqvC_U9Wl_9yibyVv1V-10" target="sWqvC_U9Wl_9yibyVv1V-11" edge="1">
          <mxGeometry width="50" height="50" relative="1" as="geometry">
            <mxPoint x="430" y="410" as="sourcePoint" />
            <mxPoint x="430" y="450" as="targetPoint" />
          </mxGeometry>
        </mxCell>
        <mxCell id="sWqvC_U9Wl_9yibyVv1V-14" value="" style="endArrow=classic;html=1;rounded=0;fontSize=20;fontColor=#FFFFFF;strokeColor=#00539F;strokeWidth=2;" parent="sWqvC_U9Wl_9yibyVv1V-1" source="sWqvC_U9Wl_9yibyVv1V-3" target="sWqvC_U9Wl_9yibyVv1V-10" edge="1">
          <mxGeometry width="50" height="50" relative="1" as="geometry">
            <mxPoint x="385.4545454545455" y="240" as="sourcePoint" />
            <mxPoint x="440" y="290" as="targetPoint" />
          </mxGeometry>
        </mxCell>
        <mxCell id="r0GuIbLco8n2TfPO4LFj-2" value="" style="ellipse;whiteSpace=wrap;html=1;fillColor=#f8cecc;strokeColor=#b85450;opacity=40;rotation=-5;" parent="sWqvC_U9Wl_9yibyVv1V-1" vertex="1">
          <mxGeometry x="70" y="202.20000000000005" width="740" height="377.82" as="geometry" />
        </mxCell>
        <mxCell id="_o6L-scP38aAHxpWHPR1-0" value="&lt;font style=&quot;font-size: 30px;&quot;&gt;UI&lt;/font&gt;" style="rounded=0;whiteSpace=wrap;html=1;fillColor=#00A3E0;strokeColor=none;fontColor=#FFFFFF;" parent="sWqvC_U9Wl_9yibyVv1V-1" vertex="1">
          <mxGeometry x="200" y="60" width="200" height="120" as="geometry" />
        </mxCell>
        <mxCell id="_9RqBAPcMhhPs6lbqJ3S-0" value="" style="endArrow=classic;html=1;rounded=0;fontSize=20;fontColor=#FFFFFF;strokeColor=#00539F;strokeWidth=2;" parent="sWqvC_U9Wl_9yibyVv1V-1" source="_o6L-scP38aAHxpWHPR1-0" target="sWqvC_U9Wl_9yibyVv1V-3" edge="1">
          <mxGeometry width="50" height="50" relative="1" as="geometry">
            <mxPoint x="125.29705882352928" y="120" as="sourcePoint" />
            <mxPoint x="90.0029411764705" y="170" as="targetPoint" />
          </mxGeometry>
        </mxCell>
        <mxCell id="_9RqBAPcMhhPs6lbqJ3S-1" value="" style="endArrow=classic;html=1;rounded=0;fontSize=20;fontColor=#FFFFFF;strokeColor=#00539F;strokeWidth=2;" parent="sWqvC_U9Wl_9yibyVv1V-1" source="_o6L-scP38aAHxpWHPR1-0" target="sWqvC_U9Wl_9yibyVv1V-10" edge="1">
          <mxGeometry width="50" height="50" relative="1" as="geometry">
            <mxPoint x="135.29705882352937" y="130" as="sourcePoint" />
            <mxPoint x="100.00294117647059" y="180" as="targetPoint" />
          </mxGeometry>
        </mxCell>
        <mxCell id="_9RqBAPcMhhPs6lbqJ3S-2" value="" style="endArrow=classic;html=1;rounded=0;fontSize=20;fontColor=#FFFFFF;strokeColor=#00539F;strokeWidth=2;" parent="sWqvC_U9Wl_9yibyVv1V-1" source="_o6L-scP38aAHxpWHPR1-0" target="sWqvC_U9Wl_9yibyVv1V-7" edge="1">
          <mxGeometry width="50" height="50" relative="1" as="geometry">
            <mxPoint x="345.4545454545455" y="190" as="sourcePoint" />
            <mxPoint x="404.5454545454545" y="290" as="targetPoint" />
          </mxGeometry>
        </mxCell>
        <mxCell id="r0GuIbLco8n2TfPO4LFj-0" value="" style="ellipse;whiteSpace=wrap;html=1;fillColor=#ffe6cc;strokeColor=#d79b00;opacity=40;" parent="sWqvC_U9Wl_9yibyVv1V-1" vertex="1">
          <mxGeometry x="70.3" y="200" width="240" height="380" as="geometry" />
        </mxCell>
      </root>
    </mxGraphModel>
  </diagram>
  <diagram name="test-pyramid-extended" id="HTuIgWva8YDWldhWkuj1">
    <mxGraphModel dx="1416" dy="818" grid="1" gridSize="10" guides="1" tooltips="1" connect="1" arrows="1" fold="1" page="1" pageScale="1" pageWidth="1100" pageHeight="850" math="0" shadow="0">
      <root>
        <mxCell id="rsh4wRF1unET1UeAmr_m-0" />
        <mxCell id="rsh4wRF1unET1UeAmr_m-1" parent="rsh4wRF1unET1UeAmr_m-0" />
        <mxCell id="rsh4wRF1unET1UeAmr_m-2" value="" style="triangle;whiteSpace=wrap;html=1;rounded=0;strokeColor=#00A3E0;strokeWidth=4;fontSize=18;fontColor=#000000;fillColor=#00A3E0;rotation=-90;" parent="rsh4wRF1unET1UeAmr_m-1" vertex="1">
          <mxGeometry x="240.86" y="-0.85" width="479.06" height="640.77" as="geometry" />
        </mxCell>
        <mxCell id="rsh4wRF1unET1UeAmr_m-3" value="" style="endArrow=none;html=1;rounded=0;strokeColor=#FFFFFF;strokeWidth=3;fontSize=40;fontColor=#000000;" parent="rsh4wRF1unET1UeAmr_m-1" edge="1">
          <mxGeometry width="50" height="50" relative="1" as="geometry">
            <mxPoint x="360" y="200" as="sourcePoint" />
            <mxPoint x="610" y="200" as="targetPoint" />
          </mxGeometry>
        </mxCell>
        <mxCell id="rsh4wRF1unET1UeAmr_m-4" value="" style="endArrow=none;html=1;rounded=0;strokeColor=#FFFFFF;strokeWidth=3;fontSize=18;fontColor=#000000;" parent="rsh4wRF1unET1UeAmr_m-1" edge="1">
          <mxGeometry width="50" height="50" relative="1" as="geometry">
            <mxPoint x="195.38999999999987" y="440.19" as="sourcePoint" />
            <mxPoint x="765.39" y="440" as="targetPoint" />
          </mxGeometry>
        </mxCell>
        <mxCell id="rsh4wRF1unET1UeAmr_m-5" value="UI" style="text;html=1;strokeColor=none;fillColor=none;align=center;verticalAlign=middle;whiteSpace=wrap;rounded=0;strokeWidth=4;fontSize=40;fontColor=#FFFFFF;" parent="rsh4wRF1unET1UeAmr_m-1" vertex="1">
          <mxGeometry x="450.39" y="130" width="60" height="30" as="geometry" />
        </mxCell>
        <mxCell id="rsh4wRF1unET1UeAmr_m-6" value="Service" style="text;html=1;strokeColor=none;fillColor=none;align=center;verticalAlign=middle;whiteSpace=wrap;rounded=0;strokeWidth=4;fontSize=40;fontColor=#FFFFFF;" parent="rsh4wRF1unET1UeAmr_m-1" vertex="1">
          <mxGeometry x="450.39" y="239.99999999999994" width="60" height="30" as="geometry" />
        </mxCell>
        <mxCell id="rsh4wRF1unET1UeAmr_m-7" value="Unit" style="text;html=1;strokeColor=none;fillColor=none;align=center;verticalAlign=middle;whiteSpace=wrap;rounded=0;strokeWidth=4;fontSize=40;fontColor=#FFFFFF;" parent="rsh4wRF1unET1UeAmr_m-1" vertex="1">
          <mxGeometry x="450.39" y="480" width="60" height="30" as="geometry" />
        </mxCell>
        <mxCell id="rsh4wRF1unET1UeAmr_m-8" value="" style="endArrow=classic;startArrow=classic;html=1;rounded=0;strokeColor=#00A3E0;strokeWidth=3;fontSize=18;fontColor=#FFFFFF;" parent="rsh4wRF1unET1UeAmr_m-1" edge="1">
          <mxGeometry width="50" height="50" relative="1" as="geometry">
            <mxPoint x="140" y="560" as="sourcePoint" />
            <mxPoint x="140" y="80" as="targetPoint" />
          </mxGeometry>
        </mxCell>
        <mxCell id="rsh4wRF1unET1UeAmr_m-9" value="" style="endArrow=classic;startArrow=classic;html=1;rounded=0;strokeColor=#00A3E0;strokeWidth=3;fontSize=18;fontColor=#FFFFFF;" parent="rsh4wRF1unET1UeAmr_m-1" edge="1">
          <mxGeometry width="50" height="50" relative="1" as="geometry">
            <mxPoint x="820" y="559.54" as="sourcePoint" />
            <mxPoint x="820" y="79.53999999999999" as="targetPoint" />
          </mxGeometry>
        </mxCell>
        <mxCell id="rsh4wRF1unET1UeAmr_m-10" value="Slow" style="text;html=1;strokeColor=none;fillColor=none;align=center;verticalAlign=middle;whiteSpace=wrap;rounded=0;strokeWidth=4;fontSize=32;fontColor=#00A3E0;" parent="rsh4wRF1unET1UeAmr_m-1" vertex="1">
          <mxGeometry x="70" y="80" width="50" height="30" as="geometry" />
        </mxCell>
        <mxCell id="rsh4wRF1unET1UeAmr_m-11" value="Quick" style="text;html=1;strokeColor=none;fillColor=none;align=center;verticalAlign=middle;whiteSpace=wrap;rounded=0;strokeWidth=4;fontSize=32;fontColor=#00A3E0;" parent="rsh4wRF1unET1UeAmr_m-1" vertex="1">
          <mxGeometry x="60" y="530" width="60" height="30" as="geometry" />
        </mxCell>
        <mxCell id="rsh4wRF1unET1UeAmr_m-12" value="More Integration" style="text;html=1;strokeColor=none;fillColor=none;align=center;verticalAlign=middle;whiteSpace=wrap;rounded=0;strokeWidth=4;fontSize=32;fontColor=#00A3E0;" parent="rsh4wRF1unET1UeAmr_m-1" vertex="1">
          <mxGeometry x="840" y="80" width="140" height="30" as="geometry" />
        </mxCell>
        <mxCell id="rsh4wRF1unET1UeAmr_m-13" value="More Isolation" style="text;html=1;strokeColor=none;fillColor=none;align=center;verticalAlign=middle;whiteSpace=wrap;rounded=0;strokeWidth=4;fontSize=32;fontColor=#00A3E0;" parent="rsh4wRF1unET1UeAmr_m-1" vertex="1">
          <mxGeometry x="840" y="530" width="120" height="30" as="geometry" />
        </mxCell>
        <mxCell id="8QFbdqQPd63wZzk0SxKL-0" value="" style="endArrow=none;html=1;rounded=0;strokeColor=#FFFFFF;strokeWidth=3;fontSize=18;fontColor=#000000;" parent="rsh4wRF1unET1UeAmr_m-1" edge="1">
          <mxGeometry width="50" height="50" relative="1" as="geometry">
            <mxPoint x="279.9999999999999" y="319.31000000000006" as="sourcePoint" />
            <mxPoint x="660" y="319.12" as="targetPoint" />
          </mxGeometry>
        </mxCell>
        <mxCell id="8QFbdqQPd63wZzk0SxKL-1" value="Component" style="text;html=1;strokeColor=none;fillColor=none;align=center;verticalAlign=middle;whiteSpace=wrap;rounded=0;strokeWidth=4;fontSize=40;fontColor=#FFFFFF;" parent="rsh4wRF1unET1UeAmr_m-1" vertex="1">
          <mxGeometry x="450" y="360" width="60" height="30" as="geometry" />
        </mxCell>
      </root>
    </mxGraphModel>
  </diagram>
  <diagram name="test-tree" id="R2PGjRFp3UlC823uuaLg">
    <mxGraphModel dx="1416" dy="818" grid="1" gridSize="10" guides="1" tooltips="1" connect="1" arrows="1" fold="1" page="1" pageScale="1" pageWidth="1100" pageHeight="850" math="0" shadow="0">
      <root>
        <mxCell id="XoRHI6hWSIaGKSWyz43R-0" />
        <mxCell id="XoRHI6hWSIaGKSWyz43R-1" parent="XoRHI6hWSIaGKSWyz43R-0" />
        <mxCell id="G9klvIMooZPgHvGotg4e-0" value="" style="rounded=0;whiteSpace=wrap;html=1;fillColor=#00A3E0;strokeColor=#00A3E0;" vertex="1" parent="XoRHI6hWSIaGKSWyz43R-1">
          <mxGeometry x="390" y="440.89" width="170" height="119.11" as="geometry" />
        </mxCell>
        <mxCell id="XoRHI6hWSIaGKSWyz43R-2" value="" style="triangle;whiteSpace=wrap;html=1;rounded=0;strokeColor=#00A3E0;strokeWidth=4;fontSize=18;fontColor=#000000;fillColor=#00A3E0;rotation=-90;" vertex="1" parent="XoRHI6hWSIaGKSWyz43R-1">
          <mxGeometry x="299.84" y="19.9" width="358.57" height="480.51" as="geometry" />
        </mxCell>
        <mxCell id="XoRHI6hWSIaGKSWyz43R-3" value="" style="endArrow=none;html=1;rounded=0;strokeColor=#FFFFFF;strokeWidth=3;fontSize=40;fontColor=#000000;" edge="1" parent="XoRHI6hWSIaGKSWyz43R-1">
          <mxGeometry width="50" height="50" relative="1" as="geometry">
            <mxPoint x="360" y="200" as="sourcePoint" />
            <mxPoint x="610" y="200" as="targetPoint" />
          </mxGeometry>
        </mxCell>
        <mxCell id="XoRHI6hWSIaGKSWyz43R-4" value="" style="endArrow=none;html=1;rounded=0;strokeColor=#FFFFFF;strokeWidth=3;fontSize=18;fontColor=#000000;" edge="1" parent="XoRHI6hWSIaGKSWyz43R-1">
          <mxGeometry width="50" height="50" relative="1" as="geometry">
            <mxPoint x="220" y="440" as="sourcePoint" />
            <mxPoint x="730" y="440" as="targetPoint" />
          </mxGeometry>
        </mxCell>
        <mxCell id="XoRHI6hWSIaGKSWyz43R-5" value="UI" style="text;html=1;strokeColor=none;fillColor=none;align=center;verticalAlign=middle;whiteSpace=wrap;rounded=0;strokeWidth=4;fontSize=40;fontColor=#FFFFFF;" vertex="1" parent="XoRHI6hWSIaGKSWyz43R-1">
          <mxGeometry x="450.39" y="130" width="60" height="30" as="geometry" />
        </mxCell>
        <mxCell id="XoRHI6hWSIaGKSWyz43R-6" value="Service" style="text;html=1;strokeColor=none;fillColor=none;align=center;verticalAlign=middle;whiteSpace=wrap;rounded=0;strokeWidth=4;fontSize=40;fontColor=#FFFFFF;" vertex="1" parent="XoRHI6hWSIaGKSWyz43R-1">
          <mxGeometry x="450.39" y="239.99999999999994" width="60" height="30" as="geometry" />
        </mxCell>
        <mxCell id="XoRHI6hWSIaGKSWyz43R-7" value="Unit" style="text;html=1;strokeColor=none;fillColor=none;align=center;verticalAlign=middle;whiteSpace=wrap;rounded=0;strokeWidth=4;fontSize=40;fontColor=#FFFFFF;" vertex="1" parent="XoRHI6hWSIaGKSWyz43R-1">
          <mxGeometry x="450.39" y="480" width="60" height="30" as="geometry" />
        </mxCell>
        <mxCell id="XoRHI6hWSIaGKSWyz43R-8" value="" style="endArrow=classic;startArrow=classic;html=1;rounded=0;strokeColor=#00A3E0;strokeWidth=3;fontSize=18;fontColor=#FFFFFF;" edge="1" parent="XoRHI6hWSIaGKSWyz43R-1">
          <mxGeometry width="50" height="50" relative="1" as="geometry">
            <mxPoint x="220" y="560" as="sourcePoint" />
            <mxPoint x="220" y="80" as="targetPoint" />
          </mxGeometry>
        </mxCell>
        <mxCell id="XoRHI6hWSIaGKSWyz43R-9" value="" style="endArrow=classic;startArrow=classic;html=1;rounded=0;strokeColor=#00A3E0;strokeWidth=3;fontSize=18;fontColor=#FFFFFF;" edge="1" parent="XoRHI6hWSIaGKSWyz43R-1">
          <mxGeometry width="50" height="50" relative="1" as="geometry">
            <mxPoint x="741" y="559.54" as="sourcePoint" />
            <mxPoint x="741" y="79.53999999999999" as="targetPoint" />
          </mxGeometry>
        </mxCell>
        <mxCell id="XoRHI6hWSIaGKSWyz43R-10" value="Slow" style="text;html=1;strokeColor=none;fillColor=none;align=center;verticalAlign=middle;whiteSpace=wrap;rounded=0;strokeWidth=4;fontSize=32;fontColor=#00A3E0;" vertex="1" parent="XoRHI6hWSIaGKSWyz43R-1">
          <mxGeometry x="150" y="80" width="50" height="30" as="geometry" />
        </mxCell>
        <mxCell id="XoRHI6hWSIaGKSWyz43R-11" value="Quick" style="text;html=1;strokeColor=none;fillColor=none;align=center;verticalAlign=middle;whiteSpace=wrap;rounded=0;strokeWidth=4;fontSize=32;fontColor=#00A3E0;" vertex="1" parent="XoRHI6hWSIaGKSWyz43R-1">
          <mxGeometry x="140" y="530" width="60" height="30" as="geometry" />
        </mxCell>
        <mxCell id="XoRHI6hWSIaGKSWyz43R-12" value="More Integration" style="text;html=1;strokeColor=none;fillColor=none;align=center;verticalAlign=middle;whiteSpace=wrap;rounded=0;strokeWidth=4;fontSize=32;fontColor=#00A3E0;" vertex="1" parent="XoRHI6hWSIaGKSWyz43R-1">
          <mxGeometry x="761" y="80" width="140" height="30" as="geometry" />
        </mxCell>
        <mxCell id="XoRHI6hWSIaGKSWyz43R-13" value="More Isolation" style="text;html=1;strokeColor=none;fillColor=none;align=center;verticalAlign=middle;whiteSpace=wrap;rounded=0;strokeWidth=4;fontSize=32;fontColor=#00A3E0;" vertex="1" parent="XoRHI6hWSIaGKSWyz43R-1">
          <mxGeometry x="761" y="530" width="120" height="30" as="geometry" />
        </mxCell>
        <mxCell id="XoRHI6hWSIaGKSWyz43R-14" value="" style="endArrow=none;html=1;rounded=0;strokeColor=#FFFFFF;strokeWidth=3;fontSize=18;fontColor=#000000;" edge="1" parent="XoRHI6hWSIaGKSWyz43R-1">
          <mxGeometry width="50" height="50" relative="1" as="geometry">
            <mxPoint x="279.9999999999999" y="319.31000000000006" as="sourcePoint" />
            <mxPoint x="660" y="319.12" as="targetPoint" />
          </mxGeometry>
        </mxCell>
        <mxCell id="XoRHI6hWSIaGKSWyz43R-15" value="Component" style="text;html=1;strokeColor=none;fillColor=none;align=center;verticalAlign=middle;whiteSpace=wrap;rounded=0;strokeWidth=4;fontSize=40;fontColor=#FFFFFF;" vertex="1" parent="XoRHI6hWSIaGKSWyz43R-1">
          <mxGeometry x="450" y="360" width="60" height="30" as="geometry" />
        </mxCell>
      </root>
    </mxGraphModel>
  </diagram>
  <diagram id="TbNgK2Tml6UrlYZEGuXI" name="component-tests-scope">
    <mxGraphModel dx="1436" dy="846" grid="1" gridSize="10" guides="1" tooltips="1" connect="1" arrows="1" fold="1" page="1" pageScale="1" pageWidth="850" pageHeight="1100" math="0" shadow="0">
      <root>
        <mxCell id="0" />
        <mxCell id="1" parent="0" />
        <mxCell id="c_au22yQHTe_QG0xKYEN-19" style="edgeStyle=orthogonalEdgeStyle;rounded=0;orthogonalLoop=1;jettySize=auto;html=1;entryX=0.5;entryY=0;entryDx=0;entryDy=0;strokeColor=#00539F;strokeWidth=2;fontSize=16;fontColor=#00539F;exitX=0;exitY=0.5;exitDx=0;exitDy=0;" parent="1" source="c_au22yQHTe_QG0xKYEN-1" target="c_au22yQHTe_QG0xKYEN-9" edge="1">
          <mxGeometry relative="1" as="geometry" />
        </mxCell>
        <mxCell id="c_au22yQHTe_QG0xKYEN-20" style="edgeStyle=orthogonalEdgeStyle;rounded=0;orthogonalLoop=1;jettySize=auto;html=1;strokeColor=#00539F;strokeWidth=2;fontSize=16;fontColor=#00539F;exitX=1;exitY=0.5;exitDx=0;exitDy=0;" parent="1" source="c_au22yQHTe_QG0xKYEN-1" target="c_au22yQHTe_QG0xKYEN-2" edge="1">
          <mxGeometry relative="1" as="geometry" />
        </mxCell>
        <mxCell id="c_au22yQHTe_QG0xKYEN-1" value="&lt;span style=&quot;font-size: 30px;&quot;&gt;Service&lt;/span&gt;&lt;br&gt;&lt;font style=&quot;font-size: 16px;&quot;&gt;&lt;i&gt;Application/Business Logic&lt;/i&gt;&lt;/font&gt;" style="rounded=0;whiteSpace=wrap;html=1;fillColor=#00A3E0;strokeColor=none;fontColor=#FFFFFF;" parent="1" vertex="1">
          <mxGeometry x="280" y="200" width="240" height="80" as="geometry" />
        </mxCell>
        <mxCell id="c_au22yQHTe_QG0xKYEN-17" style="edgeStyle=orthogonalEdgeStyle;rounded=0;orthogonalLoop=1;jettySize=auto;html=1;entryX=1;entryY=0.5;entryDx=0;entryDy=0;strokeColor=#00539F;strokeWidth=2;fontSize=16;fontColor=#00539F;exitX=0.5;exitY=1;exitDx=0;exitDy=0;" parent="1" source="c_au22yQHTe_QG0xKYEN-2" target="c_au22yQHTe_QG0xKYEN-10" edge="1">
          <mxGeometry relative="1" as="geometry" />
        </mxCell>
        <mxCell id="c_au22yQHTe_QG0xKYEN-18" style="edgeStyle=orthogonalEdgeStyle;rounded=0;orthogonalLoop=1;jettySize=auto;html=1;entryX=1;entryY=0.5;entryDx=0;entryDy=0;strokeColor=#00539F;strokeWidth=2;fontSize=16;fontColor=#00539F;" parent="1" source="c_au22yQHTe_QG0xKYEN-2" target="c_au22yQHTe_QG0xKYEN-9" edge="1">
          <mxGeometry relative="1" as="geometry" />
        </mxCell>
        <mxCell id="c_au22yQHTe_QG0xKYEN-2" value="&lt;span style=&quot;font-size: 30px;&quot;&gt;Repository&lt;/span&gt;&lt;br&gt;&lt;font style=&quot;font-size: 16px;&quot;&gt;&lt;i&gt;Data Access&lt;/i&gt;&lt;/font&gt;" style="rounded=0;whiteSpace=wrap;html=1;fillColor=#00A3E0;strokeColor=none;fontColor=#FFFFFF;" parent="1" vertex="1">
          <mxGeometry x="440" y="320" width="240" height="80" as="geometry" />
        </mxCell>
        <mxCell id="c_au22yQHTe_QG0xKYEN-3" value="&lt;i style=&quot;&quot;&gt;&lt;font style=&quot;&quot;&gt;SQL Server&lt;br style=&quot;font-size: 20px;&quot;&gt;&lt;/font&gt;&lt;/i&gt;" style="shape=cylinder3;whiteSpace=wrap;html=1;boundedLbl=1;backgroundOutline=1;size=15;fontSize=20;fontColor=#FFFFFF;fillColor=#00A3E0;strokeColor=#00539F;" parent="1" vertex="1">
          <mxGeometry x="190" y="560" width="100" height="110" as="geometry" />
        </mxCell>
        <mxCell id="c_au22yQHTe_QG0xKYEN-12" style="edgeStyle=none;rounded=0;orthogonalLoop=1;jettySize=auto;html=1;entryX=0.5;entryY=0;entryDx=0;entryDy=0;strokeColor=#00539F;strokeWidth=2;fontSize=16;fontColor=#00539F;" parent="1" source="c_au22yQHTe_QG0xKYEN-6" target="c_au22yQHTe_QG0xKYEN-1" edge="1">
          <mxGeometry relative="1" as="geometry" />
        </mxCell>
        <mxCell id="c_au22yQHTe_QG0xKYEN-6" value="&lt;span style=&quot;font-size: 30px;&quot;&gt;Controller&lt;/span&gt;" style="rounded=0;whiteSpace=wrap;html=1;fillColor=#00A3E0;strokeColor=none;fontColor=#FFFFFF;" parent="1" vertex="1">
          <mxGeometry x="280" y="80" width="240" height="80" as="geometry" />
        </mxCell>
        <mxCell id="c_au22yQHTe_QG0xKYEN-9" value="&lt;span style=&quot;font-size: 30px;&quot;&gt;Aggregate/Entity&lt;/span&gt;" style="rounded=0;whiteSpace=wrap;html=1;fillColor=#00A3E0;strokeColor=none;fontColor=#FFFFFF;" parent="1" vertex="1">
          <mxGeometry x="120" y="320" width="240" height="80" as="geometry" />
        </mxCell>
        <mxCell id="c_au22yQHTe_QG0xKYEN-15" style="edgeStyle=none;rounded=0;orthogonalLoop=1;jettySize=auto;html=1;entryX=0.5;entryY=1;entryDx=0;entryDy=0;strokeColor=#00539F;strokeWidth=2;fontSize=16;fontColor=#00539F;" parent="1" source="c_au22yQHTe_QG0xKYEN-10" target="c_au22yQHTe_QG0xKYEN-9" edge="1">
          <mxGeometry relative="1" as="geometry" />
        </mxCell>
        <mxCell id="c_au22yQHTe_QG0xKYEN-16" style="edgeStyle=none;rounded=0;orthogonalLoop=1;jettySize=auto;html=1;strokeColor=#00539F;strokeWidth=2;fontSize=16;fontColor=#00539F;" parent="1" source="c_au22yQHTe_QG0xKYEN-10" target="c_au22yQHTe_QG0xKYEN-3" edge="1">
          <mxGeometry relative="1" as="geometry" />
        </mxCell>
        <mxCell id="c_au22yQHTe_QG0xKYEN-10" value="&lt;span style=&quot;font-size: 30px;&quot;&gt;DbContext&lt;/span&gt;&lt;br&gt;&lt;font style=&quot;font-size: 16px;&quot;&gt;&lt;i&gt;Entity Framework&lt;/i&gt;&lt;/font&gt;" style="rounded=0;whiteSpace=wrap;html=1;fillColor=#00A3E0;strokeColor=none;fontColor=#FFFFFF;" parent="1" vertex="1">
          <mxGeometry x="120" y="440" width="240" height="80" as="geometry" />
        </mxCell>
      </root>
    </mxGraphModel>
  </diagram>
  <diagram name="specflow-component-tests-scope" id="W-vyFKhNjUWdTEl1lNQU">
    <mxGraphModel dx="1436" dy="846" grid="1" gridSize="10" guides="1" tooltips="1" connect="1" arrows="1" fold="1" page="1" pageScale="1" pageWidth="850" pageHeight="1100" math="0" shadow="0">
      <root>
        <mxCell id="mqW0I6kgr36iqE8_0zUW-0" />
        <mxCell id="mqW0I6kgr36iqE8_0zUW-1" parent="mqW0I6kgr36iqE8_0zUW-0" />
        <mxCell id="mqW0I6kgr36iqE8_0zUW-2" style="edgeStyle=orthogonalEdgeStyle;rounded=0;orthogonalLoop=1;jettySize=auto;html=1;entryX=0.5;entryY=0;entryDx=0;entryDy=0;strokeColor=#00539F;strokeWidth=2;fontSize=16;fontColor=#00539F;exitX=0;exitY=0.5;exitDx=0;exitDy=0;" parent="mqW0I6kgr36iqE8_0zUW-1" source="mqW0I6kgr36iqE8_0zUW-4" target="mqW0I6kgr36iqE8_0zUW-11" edge="1">
          <mxGeometry relative="1" as="geometry" />
        </mxCell>
        <mxCell id="mqW0I6kgr36iqE8_0zUW-3" style="edgeStyle=orthogonalEdgeStyle;rounded=0;orthogonalLoop=1;jettySize=auto;html=1;strokeColor=#00539F;strokeWidth=2;fontSize=16;fontColor=#00539F;exitX=1;exitY=0.5;exitDx=0;exitDy=0;" parent="mqW0I6kgr36iqE8_0zUW-1" source="mqW0I6kgr36iqE8_0zUW-4" target="mqW0I6kgr36iqE8_0zUW-7" edge="1">
          <mxGeometry relative="1" as="geometry" />
        </mxCell>
        <mxCell id="mqW0I6kgr36iqE8_0zUW-4" value="&lt;span style=&quot;font-size: 30px;&quot;&gt;Service&lt;/span&gt;&lt;br&gt;&lt;font style=&quot;font-size: 16px;&quot;&gt;&lt;i&gt;Application/Business Logic&lt;/i&gt;&lt;/font&gt;" style="rounded=0;whiteSpace=wrap;html=1;fillColor=#00A3E0;strokeColor=none;fontColor=#FFFFFF;" parent="mqW0I6kgr36iqE8_0zUW-1" vertex="1">
          <mxGeometry x="280" y="200" width="240" height="80" as="geometry" />
        </mxCell>
        <mxCell id="mqW0I6kgr36iqE8_0zUW-5" style="edgeStyle=orthogonalEdgeStyle;rounded=0;orthogonalLoop=1;jettySize=auto;html=1;entryX=1;entryY=0.5;entryDx=0;entryDy=0;strokeColor=#00539F;strokeWidth=2;fontSize=16;fontColor=#00539F;exitX=0.5;exitY=1;exitDx=0;exitDy=0;" parent="mqW0I6kgr36iqE8_0zUW-1" source="mqW0I6kgr36iqE8_0zUW-7" target="mqW0I6kgr36iqE8_0zUW-14" edge="1">
          <mxGeometry relative="1" as="geometry" />
        </mxCell>
        <mxCell id="mqW0I6kgr36iqE8_0zUW-6" style="edgeStyle=orthogonalEdgeStyle;rounded=0;orthogonalLoop=1;jettySize=auto;html=1;entryX=1;entryY=0.5;entryDx=0;entryDy=0;strokeColor=#00539F;strokeWidth=2;fontSize=16;fontColor=#00539F;" parent="mqW0I6kgr36iqE8_0zUW-1" source="mqW0I6kgr36iqE8_0zUW-7" target="mqW0I6kgr36iqE8_0zUW-11" edge="1">
          <mxGeometry relative="1" as="geometry" />
        </mxCell>
        <mxCell id="mqW0I6kgr36iqE8_0zUW-7" value="&lt;span style=&quot;font-size: 30px;&quot;&gt;Repository&lt;/span&gt;&lt;br&gt;&lt;font style=&quot;font-size: 16px;&quot;&gt;&lt;i&gt;Data Access&lt;/i&gt;&lt;/font&gt;" style="rounded=0;whiteSpace=wrap;html=1;fillColor=#00A3E0;strokeColor=none;fontColor=#FFFFFF;" parent="mqW0I6kgr36iqE8_0zUW-1" vertex="1">
          <mxGeometry x="440" y="320" width="240" height="80" as="geometry" />
        </mxCell>
        <mxCell id="mqW0I6kgr36iqE8_0zUW-8" value="&lt;i style=&quot;&quot;&gt;&lt;font style=&quot;&quot;&gt;SQL Server &lt;br&gt;&lt;font style=&quot;font-size: 18px;&quot;&gt;(in-memory)&lt;/font&gt;&lt;br style=&quot;font-size: 20px;&quot;&gt;&lt;/font&gt;&lt;/i&gt;" style="shape=cylinder3;whiteSpace=wrap;html=1;boundedLbl=1;backgroundOutline=1;size=15;fontSize=20;fontColor=#FFFFFF;fillColor=#00A3E0;strokeColor=#00539F;" parent="mqW0I6kgr36iqE8_0zUW-1" vertex="1">
          <mxGeometry x="190" y="560" width="100" height="110" as="geometry" />
        </mxCell>
        <mxCell id="mqW0I6kgr36iqE8_0zUW-9" style="edgeStyle=none;rounded=0;orthogonalLoop=1;jettySize=auto;html=1;entryX=0.5;entryY=0;entryDx=0;entryDy=0;strokeColor=#00539F;strokeWidth=2;fontSize=16;fontColor=#00539F;" parent="mqW0I6kgr36iqE8_0zUW-1" source="mqW0I6kgr36iqE8_0zUW-10" target="mqW0I6kgr36iqE8_0zUW-4" edge="1">
          <mxGeometry relative="1" as="geometry" />
        </mxCell>
        <mxCell id="mqW0I6kgr36iqE8_0zUW-10" value="&lt;span style=&quot;font-size: 30px;&quot;&gt;Controller&lt;/span&gt;" style="rounded=0;whiteSpace=wrap;html=1;fillColor=#00A3E0;strokeColor=none;fontColor=#FFFFFF;" parent="mqW0I6kgr36iqE8_0zUW-1" vertex="1">
          <mxGeometry x="280" y="80" width="240" height="80" as="geometry" />
        </mxCell>
        <mxCell id="mqW0I6kgr36iqE8_0zUW-11" value="&lt;span style=&quot;font-size: 30px;&quot;&gt;Aggregate/Entity&lt;/span&gt;" style="rounded=0;whiteSpace=wrap;html=1;fillColor=#00A3E0;strokeColor=none;fontColor=#FFFFFF;" parent="mqW0I6kgr36iqE8_0zUW-1" vertex="1">
          <mxGeometry x="120" y="320" width="240" height="80" as="geometry" />
        </mxCell>
        <mxCell id="mqW0I6kgr36iqE8_0zUW-12" style="edgeStyle=none;rounded=0;orthogonalLoop=1;jettySize=auto;html=1;entryX=0.5;entryY=1;entryDx=0;entryDy=0;strokeColor=#00539F;strokeWidth=2;fontSize=16;fontColor=#00539F;" parent="mqW0I6kgr36iqE8_0zUW-1" source="mqW0I6kgr36iqE8_0zUW-14" target="mqW0I6kgr36iqE8_0zUW-11" edge="1">
          <mxGeometry relative="1" as="geometry" />
        </mxCell>
        <mxCell id="mqW0I6kgr36iqE8_0zUW-13" style="edgeStyle=none;rounded=0;orthogonalLoop=1;jettySize=auto;html=1;strokeColor=#00539F;strokeWidth=2;fontSize=16;fontColor=#00539F;" parent="mqW0I6kgr36iqE8_0zUW-1" source="mqW0I6kgr36iqE8_0zUW-14" target="mqW0I6kgr36iqE8_0zUW-8" edge="1">
          <mxGeometry relative="1" as="geometry" />
        </mxCell>
        <mxCell id="mqW0I6kgr36iqE8_0zUW-14" value="&lt;span style=&quot;font-size: 30px;&quot;&gt;DbContext&lt;/span&gt;&lt;br&gt;&lt;font style=&quot;font-size: 16px;&quot;&gt;&lt;i&gt;Entity Framework&lt;/i&gt;&lt;/font&gt;" style="rounded=0;whiteSpace=wrap;html=1;fillColor=#00A3E0;strokeColor=none;fontColor=#FFFFFF;" parent="mqW0I6kgr36iqE8_0zUW-1" vertex="1">
          <mxGeometry x="120" y="440" width="240" height="80" as="geometry" />
        </mxCell>
        <mxCell id="mqW0I6kgr36iqE8_0zUW-15" value="" style="rounded=1;whiteSpace=wrap;html=1;fontSize=18;opacity=40;fillColor=#f8cecc;strokeColor=#b85450;" parent="mqW0I6kgr36iqE8_0zUW-1" vertex="1">
          <mxGeometry x="100" y="180" width="600" height="510" as="geometry" />
        </mxCell>
      </root>
    </mxGraphModel>
  </diagram>
  <diagram name="multiple-controllers" id="cUW2sjWae9UvL0shcr48">
    <mxGraphModel dx="1436" dy="846" grid="1" gridSize="10" guides="1" tooltips="1" connect="1" arrows="1" fold="1" page="1" pageScale="1" pageWidth="850" pageHeight="1100" math="0" shadow="0">
      <root>
        <mxCell id="JcWdJh0nuaOXOXesWTIX-0" />
        <mxCell id="JcWdJh0nuaOXOXesWTIX-1" parent="JcWdJh0nuaOXOXesWTIX-0" />
        <mxCell id="JcWdJh0nuaOXOXesWTIX-4" value="&lt;span style=&quot;font-size: 30px;&quot;&gt;Service&lt;/span&gt;&lt;br&gt;&lt;font style=&quot;font-size: 16px;&quot;&gt;&lt;i&gt;Application/Business Logic&lt;/i&gt;&lt;/font&gt;" style="rounded=0;whiteSpace=wrap;html=1;fillColor=#00A3E0;strokeColor=none;fontColor=#FFFFFF;" parent="JcWdJh0nuaOXOXesWTIX-1" vertex="1">
          <mxGeometry x="220" y="200" width="240" height="80" as="geometry" />
        </mxCell>
        <mxCell id="JcWdJh0nuaOXOXesWTIX-9" style="edgeStyle=none;rounded=0;orthogonalLoop=1;jettySize=auto;html=1;entryX=0.5;entryY=0;entryDx=0;entryDy=0;strokeColor=#00539F;strokeWidth=2;fontSize=16;fontColor=#00539F;" parent="JcWdJh0nuaOXOXesWTIX-1" source="Akbb7VrJAcp6sntObwN4-3" target="JcWdJh0nuaOXOXesWTIX-4" edge="1">
          <mxGeometry relative="1" as="geometry">
            <mxPoint x="400" y="160" as="sourcePoint" />
          </mxGeometry>
        </mxCell>
        <mxCell id="Akbb7VrJAcp6sntObwN4-0" value="&lt;span style=&quot;font-size: 30px;&quot;&gt;REST v1&lt;/span&gt;&lt;br&gt;&lt;i style=&quot;&quot;&gt;&lt;font style=&quot;font-size: 16px;&quot;&gt;Controller&lt;/font&gt;&lt;/i&gt;" style="rounded=0;whiteSpace=wrap;html=1;fillColor=#00A3E0;strokeColor=none;fontColor=#FFFFFF;" parent="JcWdJh0nuaOXOXesWTIX-1" vertex="1">
          <mxGeometry x="80" y="80" width="160" height="80" as="geometry" />
        </mxCell>
        <mxCell id="Akbb7VrJAcp6sntObwN4-3" value="&lt;span style=&quot;font-size: 30px;&quot;&gt;REST v2&lt;/span&gt;&lt;br&gt;&lt;i style=&quot;&quot;&gt;&lt;font style=&quot;font-size: 16px;&quot;&gt;Controller&lt;/font&gt;&lt;/i&gt;" style="rounded=0;whiteSpace=wrap;html=1;fillColor=#00A3E0;strokeColor=none;fontColor=#FFFFFF;" parent="JcWdJh0nuaOXOXesWTIX-1" vertex="1">
          <mxGeometry x="260" y="80" width="160" height="80" as="geometry" />
        </mxCell>
        <mxCell id="Akbb7VrJAcp6sntObwN4-4" value="&lt;span style=&quot;font-size: 30px;&quot;&gt;gRPC v2&lt;/span&gt;&lt;br&gt;&lt;i style=&quot;&quot;&gt;&lt;font style=&quot;font-size: 16px;&quot;&gt;Controller&lt;/font&gt;&lt;/i&gt;" style="rounded=0;whiteSpace=wrap;html=1;fillColor=#00A3E0;strokeColor=none;fontColor=#FFFFFF;" parent="JcWdJh0nuaOXOXesWTIX-1" vertex="1">
          <mxGeometry x="440" y="80" width="160" height="80" as="geometry" />
        </mxCell>
        <mxCell id="Akbb7VrJAcp6sntObwN4-5" style="edgeStyle=none;rounded=0;orthogonalLoop=1;jettySize=auto;html=1;strokeColor=#00539F;strokeWidth=2;fontSize=16;fontColor=#00539F;" parent="JcWdJh0nuaOXOXesWTIX-1" source="Akbb7VrJAcp6sntObwN4-4" target="JcWdJh0nuaOXOXesWTIX-4" edge="1">
          <mxGeometry relative="1" as="geometry">
            <mxPoint x="350" y="170" as="sourcePoint" />
            <mxPoint x="350" y="210" as="targetPoint" />
          </mxGeometry>
        </mxCell>
        <mxCell id="Akbb7VrJAcp6sntObwN4-6" style="edgeStyle=none;rounded=0;orthogonalLoop=1;jettySize=auto;html=1;strokeColor=#00539F;strokeWidth=2;fontSize=16;fontColor=#00539F;" parent="JcWdJh0nuaOXOXesWTIX-1" source="Akbb7VrJAcp6sntObwN4-0" target="JcWdJh0nuaOXOXesWTIX-4" edge="1">
          <mxGeometry relative="1" as="geometry">
            <mxPoint x="470" y="170" as="sourcePoint" />
            <mxPoint x="410" y="210" as="targetPoint" />
          </mxGeometry>
        </mxCell>
      </root>
    </mxGraphModel>
  </diagram>
</mxfile>
